<?xml version="1.0" encoding="UTF-8"?>
<svg id="Layer_1" data-name="Layer 1" xmlns="http://www.w3.org/2000/svg" version="1.1" viewBox="0 0 251.9 60.7">
  <defs>
    <style>
      .cls-1 {
        fill: #fff;
        stroke-width: 0px;
      }
    </style>
  </defs>
  <g>
    <path class="cls-1" d="M31.1,6.2c3.2,0,5.9,1,8,3.1,2.1,2.1,3.2,4.7,3.2,7.9s-1.1,5.8-3.2,7.8c-2.1,2.1-4.9,3.1-8.1,3.1s-5.7-1-7.8-3.1c-2.1-2.1-3.1-4.6-3.1-7.8s1-5.8,3.1-7.9c2.1-2.1,4.7-3.1,7.9-3.1ZM31.3,8.9c-2.4,0-4.4.8-6,2.4-1.6,1.6-2.4,3.6-2.4,6s.8,4.3,2.4,5.9c1.6,1.6,3.6,2.4,5.9,2.4s4.4-.8,6-2.4c1.6-1.6,2.4-3.6,2.4-6s-.8-4.3-2.4-5.9c-1.6-1.6-3.5-2.4-5.9-2.4Z"/>
    <path class="cls-1" d="M240.7,6.2c3.2,0,5.9,1,8,3.1,2.1,2.1,3.2,4.7,3.2,7.9s-1.1,5.8-3.2,7.8c-2.1,2.1-4.9,3.1-8.1,3.1s-5.7-1-7.8-3.1c-2.1-2.1-3.1-4.6-3.1-7.8s1-5.8,3.1-7.9c2.1-2.1,4.7-3.1,7.9-3.1ZM240.8,8.9c-2.4,0-4.4.8-6,2.4-1.6,1.6-2.4,3.6-2.4,6s.8,4.3,2.4,5.9c1.6,1.6,3.6,2.4,5.9,2.4s4.4-.8,6-2.4c1.6-1.6,2.4-3.6,2.4-6s-.8-4.3-2.4-5.9c-1.6-1.6-3.5-2.4-5.9-2.4Z"/>
    <path class="cls-1" d="M55.6,28.1c-2.7,0-4.9-.7-6.6-2.1-.5-.4-.9-.9-1.2-1.5-.3-.5-.6-1.2-.8-2-.2-.8-.3-2.1-.3-3.8V6.6h2.7v12.1c0,2.1,0,3.1.6,4,.5.8,1.2,1.5,2.2,2,1,.5,2.2.8,3.5.8,1.9,0,3.5-.5,4.7-1.5.6-.6,1.1-1.2,1.4-2,.3-.7.3-1.5.3-3.3V6.6h2.7v12.1c0,1.6-.1,2.9-.4,3.7-.2.8-.5,1.5-.9,2.1-.3.5-.8,1-1.2,1.5-1.6,1.4-3.8,2.2-6.5,2.2Z"/>
    <polygon class="cls-1" points="222.5 16 211.3 16 211.3 6.6 208.5 6.6 208.5 27.8 211.3 27.8 211.3 18.5 222.5 18.5 222.5 27.8 225.3 27.8 225.3 6.6 222.5 6.6 222.5 16"/>
    <path class="cls-1" d="M147.1,6.4h-2l-8.5,21.3h0c0,.1,2.9.1,2.9.1l2.4-6.3h8.6l2.6,6.3h0c0,0,2.9,0,2.9,0l-8.9-21.3h0ZM142.9,18.9l3.2-8.2,3.4,8.2h-6.6Z"/>
    <path class="cls-1" d="M104.5,18.4h4.2v6.2c-1.3.7-3,1-4.6.9-2.3-.2-7.5-1.4-7.5-8.2s3.1-8.4,8.3-8.4c0,0,3.5,0,6.3,1.9h.1c0,0,0-2.9,0-2.9h0c-1.6-.7-4-1.6-6.1-1.6-3.6,0-6.3.9-8.3,2.9-2,1.9-3.1,4.8-3.1,8,0,5.3,2.8,10.9,10.5,10.9s5.3-.7,7.1-1.8h.2v-10.3h-6.9v2.4Z"/>
    <path class="cls-1" d="M194.5,18.4h4.2v6.2c-1.3.7-3,1-4.6.9-2.3-.2-7.5-1.4-7.5-8.2s3.1-8.4,8.3-8.4c0,0,3.5,0,6.3,1.9h.1c0,0,0-2.9,0-2.9h0c-1.6-.7-4-1.6-6.1-1.6-3.6,0-6.3.9-8.3,2.9-2,1.9-3.1,4.8-3.1,8,0,5.3,2.8,10.9,10.5,10.9s5.3-.7,7.1-1.8h.2v-10.3h-6.9v2.4Z"/>
    <polygon class="cls-1" points="86 22.8 73.4 6.6 73.4 6.6 70.7 6.6 70.7 27.8 73.3 27.8 73.3 11.2 86.3 27.8 86.3 27.8 88.7 27.8 88.7 6.6 86 6.6 86 22.8"/>
    <polygon class="cls-1" points="175.8 22.8 163.2 6.6 163.1 6.6 160.5 6.6 160.5 27.8 163.1 27.8 163.1 11.2 176 27.8 176.1 27.8 178.4 27.8 178.4 6.6 175.8 6.6 175.8 22.8"/>
    <polygon class="cls-1" points="14.8 6.6 9.1 14 9 13.9 3.4 6.6 0 6.6 7.7 16.5 7.7 27.8 10.6 27.8 10.6 16.5 18.3 6.6 14.8 6.6"/>
    <path class="cls-1" d="M130.6,22.1c-1-1.5-1.8-3.1-3.7-4.3h-.1c0,0,.1-.1.1-.1,2.2-.9,3.5-2.7,3.5-5.2s-1.2-4.3-3.2-5.2c-1.4-.6-2.7-.7-3.6-.7h-5.2v21.3h2.8v-9.3h.9c1.5,0,2.5,0,4.6,2.7.3.4,1.1,1.7,2,3l2.3,3.6h3.4l-3.7-5.7ZM125.4,15.6c-.6.2-1.3.3-2.7.3h-1.5v-6.9h1.2c1.9,0,2.6,0,3.4.5,1,.5,1.6,1.7,1.6,2.9s-.5,2.6-2.1,3.2Z"/>
  </g>
  <g>
    <path class="cls-1" d="M131.5,38.3c2.4,0,4.4.8,6,2.3,1.6,1.6,2.4,3.5,2.4,5.9s-.8,4.3-2.4,5.8c-1.6,1.5-3.6,2.3-6.1,2.3s-4.3-.8-5.8-2.3c-1.6-1.5-2.3-3.5-2.3-5.8s.8-4.4,2.4-5.9c1.6-1.6,3.5-2.3,5.9-2.3ZM131.6,40.3c-1.8,0-3.3.6-4.5,1.8-1.2,1.2-1.8,2.7-1.8,4.5s.6,3.3,1.8,4.4c1.2,1.2,2.7,1.8,4.4,1.8s3.3-.6,4.5-1.8c1.2-1.2,1.8-2.7,1.8-4.5s-.6-3.2-1.8-4.4c-1.2-1.2-2.7-1.8-4.4-1.8Z"/>
    <path class="cls-1" d="M116.2,45.2c-1.5-.8-2.9-1.6-2.9-3s1.1-2,2.6-2,2.2.4,3.2,1.2l.5.4v-2.4h-.1c-1.1-.8-2.2-1.1-3.4-1.1s-2.6.4-3.5,1.1c-.9.8-1.3,1.8-1.3,3.1,0,2.3,1.9,3.5,3.8,4.6,1.6,1,3.1,1.9,3.1,3.5s-.9,2.1-2.7,2.1-2.5-.6-3.6-1.7l-.5-.5v2.7h.1c1.3,1,2.6,1.5,4.3,1.5,2.6,0,4.4-1.8,4.4-4.3s-.4-2.3-1.4-3.3c-.8-.8-1.8-1.3-2.7-1.9Z"/>
    <polygon class="cls-1" points="100.6 52.5 100.6 47.4 107 47.4 107 45.5 100.6 45.5 100.6 40.4 107.3 40.4 107.3 38.5 98.5 38.5 98.5 54.4 107.5 54.4 107.5 52.5 100.6 52.5"/>
    <polygon class="cls-1" points="168.3 38.5 155.4 38.5 155.4 40.4 160.8 40.4 160.8 54.4 162.9 54.4 162.9 40.4 168.3 40.4 168.3 38.5"/>
    <path class="cls-1" d="M92.7,50.2c-.7-1.1-1.4-2.3-2.8-3.2h0c0,0,.1-.1.1-.1,1.7-.7,2.6-2,2.6-3.9s-.9-3.2-2.4-3.9c-1-.5-2-.5-2.7-.5h-3.9v15.9h2.1v-7h.7c1.1,0,1.9,0,3.4,2,.2.3.8,1.2,1.5,2.2l1.7,2.7h2.5l-2.8-4.3ZM88.8,45.3c-.4.2-1,.2-2.1.2h-1.1v-5.1h.9c1.4,0,2,0,2.5.3.7.4,1.2,1.2,1.2,2.2s-.4,1.9-1.5,2.4Z"/>
    <path class="cls-1" d="M152.8,50.2c-.7-1.1-1.4-2.3-2.8-3.2h0c0,0,.1-.1.1-.1,1.7-.7,2.6-2,2.6-3.9s-.9-3.2-2.4-3.9c-1-.5-2-.5-2.7-.5h-3.9v15.9h2.1v-7h.7c1.1,0,1.9,0,3.4,2,.2.3.8,1.2,1.5,2.2l1.7,2.7h2.5l-2.8-4.3ZM148.9,45.3c-.4.2-1,.2-2.1.2h-1.1v-5.1h.9c1.4,0,2,0,2.5.3.7.4,1.2,1.2,1.2,2.2s-.4,1.9-1.5,2.4Z"/>
  </g>
</svg>